<svg xmlns="http://www.w3.org/2000/svg" viewBox="0 0 24 24" width="24" height="24">
  <linearGradient id="a" gradientUnits="userSpaceOnUse" x1="1.464" y1="22.536" x2="22.536" y2="1.464">
    <stop offset="0" stop-color="#FD5"/>
    <stop offset=".5" stop-color="#FF543E"/>
    <stop offset="1" stop-color="#C837AB"/>
  </linearGradient>
  <path fill="url(#a)" d="M12 2c2.717 0 3.056.01 4.122.06 1.065.05 1.79.217 2.428.465.66.254 1.216.598 1.772 1.153.509.5.902 1.105 1.153 1.772.247.637.415 1.363.465 2.428.047 1.066.06 1.405.06 4.122 0 2.717-.01 3.056-.06 4.122-.05 1.065-.218 1.79-.465 2.428a4.883 4.883 0 01-1.153 1.772c-.5.508-1.105.902-1.772 1.153-.637.247-1.363.415-2.428.465-1.066.047-1.405.06-4.122.06-2.717 0-3.056-.01-4.122-.06-1.065-.05-1.79-.218-2.428-.465a4.89 4.89 0 01-1.772-1.153 4.904 4.904 0 01-1.153-1.772c-.247-.637-.415-1.363-.465-2.428C2.013 15.056 2 14.717 2 12c0-2.717.01-3.056.06-4.122.05-1.066.217-1.79.465-2.428a4.88 4.88 0 011.153-1.772A4.897 4.897 0 015.45 2.525c.638-.248 1.362-.415 2.428-.465C8.944 2.013 9.283 2 12 2zm0 1.802c-2.67 0-2.986.01-4.04.058-.976.045-1.505.207-1.858.344-.466.182-.8.398-1.15.748-.35.35-.566.683-.748 1.15-.137.353-.3.882-.344 1.857-.048 1.055-.058 1.37-.058 4.04 0 2.67.01 2.986.058 4.04.045.976.207 1.505.344 1.858.182.466.398.8.748 1.15.35.35.683.566 1.15.748.353.137.882.3 1.857.344 1.054.048 1.37.058 4.04.058 2.67 0 2.987-.01 4.04-.058.976-.045 1.505-.207 1.858-.344.466-.182.8-.398 1.15-.748.35-.35.566-.683.748-1.15.137-.353.3-.882.344-1.857.048-1.055.058-1.37.058-4.04 0-2.67-.01-2.986-.058-4.04-.045-.976-.207-1.505-.344-1.858a3.097 3.097 0 00-.748-1.15 3.098 3.098 0 00-1.15-.748c-.353-.137-.882-.3-1.857-.344-1.054-.048-1.37-.058-4.04-.058zm0 3.063a5.135 5.135 0 110 10.27 5.135 5.135 0 010-10.27zm0 8.468a3.333 3.333 0 100-6.666 3.333 3.333 0 000 6.666zm6.538-8.671a1.2 1.2 0 11-2.4 0 1.2 1.2 0 012.4 0z"/>
</svg> 