<svg xmlns="http://www.w3.org/2000/svg" viewBox="0 0 24 24" width="24" height="24">
  <path fill="#1DB954" d="M12 2C6.477 2 2 6.477 2 12s4.477 10 10 10 10-4.477 10-10S17.523 2 12 2zm4.586 14.424a.622.622 0 0 1-.857.207c-2.348-1.435-5.304-1.76-8.785-.964a.622.622 0 1 1-.277-1.215c3.809-.87 7.076-.496 9.712 1.115a.623.623 0 0 1 .207.857zm1.223-2.722a.78.78 0 0 1-1.072.257c-2.687-1.652-6.785-2.13-9.965-1.166a.78.78 0 0 1-.973-.516.78.78 0 0 1 .516-.972c3.632-1.102 8.147-.569 11.234 1.328a.78.78 0 0 1 .26 1.069zm.105-2.835c-3.223-1.914-8.54-2.09-11.618-1.156a.935.935 0 1 1-.543-1.79c3.532-1.072 9.404-.865 13.115 1.338a.936.936 0 1 1-.954 1.608z"/>
</svg> 